Patient4_TMGait_0pt3_01_left_20_EMG.mot
version=1
nRows=23
nColumns=33
inDegrees=no
endheader
time	1LAddLong	2LGlutMax	3LGlutMed	4LIliopsoas	5LSemiMemb	6LBicFemLong	7LRecFem	8LVastMed	9LVastLat	10LGasMed	11LTibAnt	12lTibPost	13LPeroneusLong	14LSol	15LExtDigLong	16LFlexDigLong	17RAddLong	18RGlutMax	19RGlutMed	20RIliopsoas	21RSemiMemb	22RBicFemLong	23RRecFem	24RVastMed	25RVastLat	26RGasMed	27RTibAnt	28RTibPost	29RPeroneusLong	30RSol	31RExtDigLong	32RFlexDigLong
39.403	0.02182	-0.053253	-0.020142	-0.007324	-0.012054	-0.072937	-0.010681	0.001526	0.039063	-0.033569	0.22614	0.003662	-0.007324	0.06958	-0.26169	-0.011749	0.012817	-0.091858	-0.97076	0.030975	-0.032349	-0.028992	-0.002136	-0.11978	0.23773	0.000305	0.036316	-0.021667	-0.61417	-0.16922	-0.003204	-0.015259
39.404	0.012665	-0.07019	-0.04303	0.000916	-0.002899	-0.081177	0.010529	0	0.029297	-0.025482	0.23163	0.005035	-0.019379	0.077362	-0.42831	0.001984	0.019989	-0.14572	-1.171	0.028992	-0.098419	-0.014954	0.031433	-0.088654	-0.19363	0.001068	0.061646	-0.032806	-1.3788	-0.19486	-0.001068	-0.005798
39.405	0.016632	-0.062714	-0.061493	-0.012817	-0.012207	-0.096436	0.003815	0.000916	0.019684	-0.021362	0.081024	0.00473	-0.002899	0.017548	0.007782	-0.028992	0.001678	-0.1088	-0.39902	-0.019226	-0.14313	0.00061	-0.056305	-0.084991	-0.54138	-0.015717	0.071106	-0.055084	-1.2206	-0.17822	-0.000305	-0.008698
39.406	0.005341	-0.063171	-0.006561	-0.023193	0.00351	-0.085144	-0.005646	-0.003662	0.017548	-0.010834	-0.022888	0.009918	0.029449	-0.02655	-0.34134	-0.017395	-0.018463	-0.054626	-0.031281	-0.019989	0	-0.063324	0.01297	-0.07309	-0.67658	-0.07843	0.072632	-0.084229	-0.59067	-0.080719	0.000153	-0.012512
39.407	0.010986	-0.076294	0.022125	-0.007935	0.003815	-0.086823	0.000763	0	0.014496	-0.002594	0.013428	0.011292	0.022736	-0.04303	-0.17609	-0.027008	-0.003357	-0.034027	0.021362	-0.051422	0.010071	-0.21729	0.33386	0.097046	-0.49561	-0.1236	0.052185	-0.090485	0.4158	-0.035553	-0.001068	-0.009308
39.408	0.008392	-0.058441	0.075531	0.005188	0.006866	-0.08255	-0.006104	-0.001831	0.007477	0.007782	0.077972	0.01358	-0.00061	-0.088959	1.0944	-0.006409	0.007629	-0.000916	0.41412	0.025635	-0.010376	-0.30304	0.53131	0.11993	0.063477	-0.14832	0.080719	-0.16449	0.58685	0.20111	0.001526	-0.010223
39.409	0.014954	-0.044708	0.054474	-0.007324	-0.000458	-0.055542	0.002289	0.003204	0.004883	-0.016327	0.09964	0.014954	0.029449	-0.077515	-0.12131	-0.009766	0.00473	0.008545	0.21164	0.015411	-0.002594	-0.2919	0.54672	0.008698	0.38971	-0.048065	0.16007	-0.022278	1.2874	0.39047	0.006256	-0.013123
39.41	0.009918	-0.041656	0.023193	0.009918	-0.007324	-0.058441	0.010223	0.00351	0.002899	-0.020294	0.021362	0.014038	0.024872	-0.061035	-0.3447	-0.021973	-0.008698	-0.028076	0.13275	-0.038605	0.006561	-0.17227	0.40298	-0.25681	0.23956	-0.005798	0.22079	0.20355	1.0338	0.32364	-0.000458	-0.00885
39.411	0.01236	-0.039673	-0.012817	0.010681	-0.006714	-0.04837	-0.003815	0.001831	-0.011597	-0.017853	-0.039368	0.014648	0.030365	-0.033569	-0.15961	-0.024872	-0.014648	-0.052338	-0.026855	0.002594	0.023041	-0.082397	0.27359	-0.11856	0.14526	0.16678	0.055847	0.060577	-0.54031	0.006714	-0.002899	0.001526
39.412	0.009613	-0.030212	-0.047913	0.005798	-0.013733	-0.063934	0.001984	0.007629	-0.005646	-0.022278	-0.097351	0.012817	0.032349	-0.07843	-0.000458	-0.018158	-0.02655	0.015259	0.35721	-0.040741	0.011139	-0.034485	0.13138	0.20218	0.020752	0.14282	-0.27435	0.074921	-0.64606	-0.15991	-0.000458	-0.002899
39.413	0.011444	-0.023956	-0.067596	0.027161	-0.020294	-0.063019	-0.001068	0.002594	-0.009155	-0.0177	-0.10498	0.011902	0.061188	-0.062714	-0.22492	-0.009308	-0.027924	0.083923	0.68878	-0.011444	0.014954	-0.022278	-0.36819	0.17944	-0.076141	0.017853	-0.11398	0.035095	-0.7692	-0.11719	-0.001678	-0.007629
39.414	0.012054	-0.027313	0.013275	-0.002136	-0.017548	-0.098419	-0.005188	0.005646	-0.01297	-0.025024	-0.056763	0.008698	0.02533	-0.016327	-0.12314	0.004883	-0.019379	0.10117	0.51956	0.051422	0.004425	-0.031433	-0.71869	0.12039	-0.042725	-0.020447	0.020447	0.015717	0.21866	0.15213	-0.001678	-0.005798
39.415	-0.00061	-0.015411	0.12177	0.001068	-0.011139	-0.062103	0.006866	0.003204	-0.005798	-0.009003	-0.010681	0.00473	-0.006561	-0.054321	-0.031586	-0.007935	-0.00473	0.050659	0.36255	0.074158	-0.005035	-0.073395	-0.62149	0.2713	-0.05188	-0.004272	-0.11353	0.030975	0.73776	0.15884	0.002136	-0.015411
39.416	0.012054	-0.030212	0.17792	-0.007782	-0.023956	-0.086823	0.00885	0.008087	-0.021057	-0.004883	-0.02243	0.00824	-0.028229	-0.081787	0.025024	0.009766	0.02243	0.041199	0.22949	0.031891	-0.0177	-0.077667	-0.46234	0.2066	0.023041	-0.000916	-0.233	0.019684	1.7532	0.14282	0.005951	-0.024719
39.417	0.02243	-0.030212	0.069275	0.013733	-0.020599	-0.057068	-0.004578	0.002899	-0.022583	0.001984	-0.018768	0.006714	-0.005035	-0.12512	0.046082	0.006104	0.050201	0.11841	-0.10315	-0.11978	-0.045166	-0.08667	-0.19226	-0.15137	-0.0383	0.017548	-0.06546	-0.02182	-0.66101	0.045776	-0.002289	-0.012817
39.418	0.00946	-0.006409	0.053711	0.030518	0.024567	-0.062561	0.009613	-0.001984	-0.01709	-0.001068	0.062256	0.010529	-0.024109	-0.095673	0.069733	0.003052	0.046692	0.06134	-0.26932	-0.2446	-0.027924	-0.08316	-0.20706	0.069885	0.22598	0.016632	-0.062866	-0.041656	-1.2431	-0.21057	-0.003052	-0.001831
39.419	0.023499	0.002747	0.049744	0.031738	-0.002441	-0.040436	0.010223	0.002899	-0.021362	-0.010376	0.036621	0.006256	-0.010834	-0.099182	0.056458	0.001526	0.027161	0.054016	-0.51407	-0.19852	-0.011292	-0.079651	-0.13199	0.36148	0.41122	0.016937	-0.12817	-0.035095	0.68665	-0.25116	-0.001221	-0.007629
39.42	0.006866	-0.036316	-0.002899	0.016174	-0.012817	-0.033722	0.010223	0.000763	-0.022278	-0.024109	0.034027	-0.004272	-0.019226	-0.081024	-0.039673	0.013733	0.018311	-0.10834	-0.6459	-0.037079	0.001526	-0.096741	-0.14542	0.29297	0.56595	0.012512	-0.15793	-0.034637	0.38666	-0.45578	-0.00061	-0.014954
39.421	0.009613	-0.039673	0.015411	0.006561	-0.009308	-0.042114	0.015411	0.00061	-0.034637	-0.026245	0.015259	-0.002441	-0.01236	-0.089417	-0.1088	0.013885	0.019684	-0.18036	-0.18219	0.066681	0.001373	-0.096283	-0.2063	0.11536	0.60089	0.01297	-0.13519	-0.001068	0.43823	-0.40237	-0.000458	-0.026093
39.422	0.013428	-0.030365	0.024109	0.020294	-0.016327	-0.049133	-0.002747	0.001678	-0.045166	-0.012512	-0.08316	0.007477	0.035858	-0.04303	-0.019531	0.016632	0.02533	-0.072784	-0.14633	0.22553	-0.006256	-0.16373	-0.015106	-0.071564	0.57999	0.013275	-0.11124	-0.006409	0.87204	-0.27298	-0.006714	-0.015106
39.423	0.014191	-0.016785	-0.018463	0.002289	-0.028839	-0.059204	-0.005646	0.000763	-0.040588	-0.010681	-0.04715	-0.002594	0.033112	-0.022888	0.12451	0.018158	0.022278	-0.039978	0.12848	0.26321	-0.015564	-0.18631	-0.006866	-0.17456	0.23346	0.00885	-0.054779	-0.010376	-0.21301	0.15167	-0.00061	-0.006714
39.424	0.014038	-0.01297	-0.032043	-0.001678	-0.033112	-0.075378	0.005646	-0.000153	-0.036926	-0.016937	-0.028076	-0.00061	0.0383	-0.038147	0.13534	0.029602	0.025787	-0.019684	-0.035858	0.23239	-0.010071	-0.079651	0.057678	-0.057526	-0.17899	0.002289	0.22827	-0.013733	-0.8551	0.14847	0.003204	-0.004272
39.425	0.021667	-0.036926	-0.056305	-0.02182	0.024109	-0.052795	0.010681	0.006409	-0.036163	-0.009766	-0.016785	-0.003357	0.015564	-0.023346	0.10559	0.008545	0.015259	-0.026093	-0.59174	0.17685	-0.028839	0.062103	0.037689	-0.006256	-0.003815	-0.001526	0.26382	-0.0177	-0.85403	0.041656	-0.001221	-0.00885
